<svg width="24" height="24" viewBox="0 0 24 24" fill="none" xmlns="http://www.w3.org/2000/svg">
<path d="M19.7143 5.57129H4.28571C3.94472 5.57129 3.6177 5.70675 3.37658 5.94787C3.13546 6.18898 3 6.51601 3 6.857V17.1427C3 17.4837 3.13546 17.8107 3.37658 18.0519C3.6177 18.293 3.94472 18.4284 4.28571 18.4284H19.7143C20.0553 18.4284 20.3823 18.293 20.6234 18.0519C20.8645 17.8107 21 17.4837 21 17.1427V6.857C21 6.51601 20.8645 6.18898 20.6234 5.94787C20.3823 5.70675 20.0553 5.57129 19.7143 5.57129ZM18.3 6.857L12 11.2156L5.7 6.857H18.3ZM4.28571 17.1427V7.442L11.6336 12.527C11.7412 12.6017 11.869 12.6417 12 12.6417C12.131 12.6417 12.2588 12.6017 12.3664 12.527L19.7143 7.442V17.1427H4.28571Z" fill="white" fill-opacity="0.8"/>
</svg>
