<svg width="100" height="100" viewBox="0 0 100 100" fill="none" xmlns="http://www.w3.org/2000/svg">
<rect x="25.1177" y="11" width="68.8235" height="63.4706" rx="31.7353" fill="#50A0C8" fill-opacity="0.2"/>
<path fill-rule="evenodd" clip-rule="evenodd" d="M26.0573 22.6606C25.9297 22.7882 25.8793 23.7535 25.8793 26.0646C25.8793 29.8094 25.8612 29.757 27.1508 29.757H27.9562V33.0231V36.2892H18.8325C9.90658 36.2892 9.70244 36.2956 9.41212 36.5861C9.11808 36.8804 9.11541 37.081 9.11541 59.3006V81.7181H7.79077C6.78449 81.7181 6.4102 81.7742 6.23306 81.9513C6.03546 82.1492 6 82.678 6 85.435C6 88.4965 6.01662 88.6943 6.28691 88.839C6.68821 89.0538 79.4883 89.0538 79.8896 88.839C80.1599 88.6943 80.1765 88.4965 80.1765 85.435C80.1765 82.678 80.141 82.1492 79.9434 81.9513C79.7663 81.7742 79.392 81.7181 78.3857 81.7181H77.0611V59.3006C77.0611 37.081 77.0584 36.8804 76.7644 36.5861C76.474 36.2956 76.2699 36.2892 67.3439 36.2892H58.2202V33.0231V29.757H59.0256C60.3162 29.757 60.2972 29.8123 60.2972 26.0401C60.2972 22.9786 60.2806 22.7808 60.0103 22.6361C59.5697 22.4002 26.2936 22.4241 26.0573 22.6606ZM58.6653 26.1197V28.1239H43.0882H27.5112V26.1197V24.1155H43.0882H58.6653V26.1197ZM56.5884 55.7375V81.7181H54.1405H51.6927V71.0621C51.6927 61.6577 51.6656 60.3671 51.4617 60.076L51.2309 59.746H43.0882H34.9456L34.7148 60.076C34.5109 60.3671 34.4838 61.6577 34.4838 71.0621V81.7181H32.0359H29.5881V55.7375V29.757H43.0882H56.5884V55.7375ZM34.8747 35.4093L34.4838 35.7169V38.9723C34.4838 42.0297 34.5019 42.2458 34.7805 42.5246C35.0699 42.8142 35.2749 42.8215 43.0882 42.8215C50.9015 42.8215 51.1066 42.8142 51.396 42.5246C51.6746 42.2458 51.6927 42.0297 51.6927 38.9723V35.7169L51.3018 35.4093C50.9176 35.1067 50.7777 35.1015 43.0882 35.1015C35.3988 35.1015 35.2589 35.1067 34.8747 35.4093ZM49.9125 39.0357V41.1884H43.0882H36.264V39.0357V36.8831H43.0882H49.9125V39.0357ZM27.9196 59.8573L27.8821 81.6439H19.3518H10.8215L10.7839 59.8573L10.7463 38.0708H19.3518H27.9573L27.9196 59.8573ZM75.3925 59.8573L75.355 81.6439H66.8247H58.2944L58.2569 59.8573L58.2192 38.0708H66.8247H75.4302L75.3925 59.8573ZM15.4137 42.1467L15.0495 42.5111V46.4412V50.3714L15.4493 50.6862C15.8362 50.9907 15.9698 50.9996 19.5412 50.9568C22.9968 50.9154 23.2468 50.8942 23.4436 50.6244C23.6129 50.3925 23.6536 49.565 23.6518 46.3933C23.6504 44.2246 23.6004 42.3768 23.5405 42.287C23.2456 41.8451 22.7151 41.7823 19.2806 41.7823H15.7778L15.4137 42.1467ZM63.0417 41.9597C62.8785 42.0523 62.6959 42.2006 62.636 42.2892C62.576 42.3779 62.526 44.2246 62.5247 46.3933C62.5229 49.565 62.5636 50.3925 62.7328 50.6244C62.9297 50.8942 63.1797 50.9154 66.6353 50.9568C70.2067 50.9996 70.3402 50.9907 70.7271 50.6862L71.1269 50.3714V46.4412V42.5111L70.7627 42.1467L70.3987 41.7823L66.8685 41.7867C64.5181 41.7898 63.2393 41.8476 63.0417 41.9597ZM21.8738 46.3845V49.2053H19.3518H16.8298V46.3845V43.5638H19.3518H21.8738V46.3845ZM69.3467 46.3845V49.2053H66.8247H64.3027V46.3845V43.5638H66.8247H69.3467V46.3845ZM34.7148 47.0115C34.5234 47.2846 34.4838 47.8783 34.4838 50.4672C34.4838 53.056 34.5234 53.6497 34.7148 53.9229L34.9456 54.2529H43.0882H51.2309L51.4617 53.9229C51.6531 53.6497 51.6927 53.056 51.6927 50.4672C51.6927 47.8783 51.6531 47.2846 51.4617 47.0115L51.2309 46.6815H43.0882H34.9456L34.7148 47.0115ZM49.9125 50.4672V52.6199H43.0882H36.264V50.4672V48.3145H43.0882H49.9125V50.4672ZM15.3462 55.5891C15.0645 55.871 15.0495 56.0839 15.0495 59.7871C15.0495 63.0777 15.0857 63.74 15.2805 64.0182C15.509 64.3447 15.5519 64.3482 19.3372 64.3482C22.8551 64.3482 23.1827 64.3264 23.4085 64.0767C23.624 63.8384 23.654 63.3218 23.654 59.8456C23.654 56.0839 23.6392 55.8711 23.3573 55.5891C23.0765 55.308 22.8628 55.2922 19.3518 55.2922C15.8407 55.2922 15.6271 55.308 15.3462 55.5891ZM62.8192 55.5891C62.5372 55.8713 62.5225 56.0839 62.5225 59.8714C62.5225 63.5439 62.5438 63.8761 62.7938 64.1025C63.0313 64.3177 63.5373 64.3482 66.8651 64.3482C70.6237 64.3482 70.6676 64.3447 70.896 64.0182C71.0907 63.74 71.1269 63.0777 71.1269 59.7871C71.1269 56.0839 71.112 55.871 70.8302 55.5891C70.5494 55.308 70.3358 55.2922 66.8247 55.2922C63.3136 55.2922 63.1 55.308 62.8192 55.5891ZM21.8738 59.8944V62.7152H19.3518H16.8298V59.8944V57.0737H19.3518H21.8738V59.8944ZM69.3467 59.8944V62.7152H66.8247H64.3027V59.8944V57.0737H66.8247H69.3467V59.8944ZM49.9125 71.5486V81.7181H43.0882H36.264V71.5486V61.379H43.0882H49.9125V71.5486ZM15.2805 69.1321C15.0857 69.4103 15.0495 70.0726 15.0495 73.3632C15.0495 77.0664 15.0645 77.2793 15.3462 77.5612C15.6274 77.8425 15.8407 77.8581 19.4175 77.8581C23.1499 77.8581 23.1947 77.8544 23.423 77.5281C23.6178 77.25 23.654 76.5907 23.654 73.3301C23.654 70.0695 23.6178 69.4101 23.423 69.1321C23.1945 68.8055 23.1521 68.802 19.3518 68.802C15.5514 68.802 15.509 68.8055 15.2805 69.1321ZM62.7535 69.1321C62.5587 69.4101 62.5225 70.0695 62.5225 73.3301C62.5225 76.5907 62.5587 77.25 62.7535 77.5281C62.9818 77.8544 63.0266 77.8581 66.759 77.8581C70.3358 77.8581 70.5491 77.8425 70.8302 77.5612C71.112 77.2793 71.1269 77.0664 71.1269 73.3632C71.1269 70.0726 71.0907 69.4103 70.896 69.1321C70.6675 68.8055 70.6251 68.802 66.8247 68.802C63.0243 68.802 62.9819 68.8055 62.7535 69.1321ZM21.8738 73.3301V76.2251H19.3518H16.8298V73.3301V70.4351H19.3518H21.8738V73.3301ZM69.3467 73.3301V76.2251H66.8247H64.3027V73.3301V70.4351H66.8247H69.3467V73.3301ZM78.5446 85.373V87.3596H43.0882H7.63188V85.373V83.3863H43.0882H78.5446V85.373Z" fill="#1F1F1F"/>
</svg>
