<svg width="100" height="100" viewBox="0 0 100 100" fill="none" xmlns="http://www.w3.org/2000/svg">
<rect x="25.1177" y="11" width="68.8235" height="63.4706" rx="31.7353" fill="#50A0C8" fill-opacity="0.2"/>
<path fill-rule="evenodd" clip-rule="evenodd" d="M37.3747 16.0957C36.303 16.4337 35.504 17.1031 34.9656 18.1139C34.7242 18.5671 34.666 19.1186 34.6012 21.5598L34.5242 24.4661L33.2919 24.9151C32.614 25.162 31.5196 25.6173 30.8596 25.927L29.6598 26.49L27.6993 24.5532C25.5522 22.4323 25.0371 22.1214 23.6691 22.1214C22.1916 22.1214 21.6155 22.5256 18.2339 25.9342C15.3657 28.8255 15.1978 29.0274 14.948 29.8865C14.4279 31.6757 14.8481 32.5936 17.3614 35.1568L19.1916 37.0234L18.5078 38.4736C18.1319 39.2712 17.6854 40.34 17.5155 40.8486L17.2066 41.7734L14.3054 41.8519C11.7201 41.9219 11.3369 41.9666 10.7876 42.2617C9.98132 42.6949 9.41503 43.3065 9.02754 44.1625C8.73576 44.8069 8.71326 45.1638 8.71018 49.191C8.70648 53.8809 8.76243 54.2851 9.56115 55.3321C10.02 55.9337 11.3291 56.6473 11.9738 56.6473H12.406V55.4143C12.406 54.4048 12.3628 54.1812 12.1679 54.1812C12.0368 54.1812 11.7594 54.0109 11.5513 53.8028L11.1729 53.4246V49.285C11.1729 44.9005 11.1452 45.1035 11.834 44.4395C11.8519 44.4222 13.4858 44.3701 15.4651 44.3239L19.0636 44.2396L19.5593 42.6212C20.1273 40.767 20.7597 39.2856 21.6669 37.6847L22.3006 36.5664L19.7885 34.0509C17.4785 31.7377 17.2766 31.4912 17.2766 30.9839C17.2766 30.4735 17.4944 30.2142 20.1959 27.5099C24.0024 23.6996 23.4527 23.737 26.8136 27.0592L29.3141 29.5309L31.0967 28.5946C33.0059 27.5918 34.7535 26.9009 36.1811 26.5845L37.0674 26.3881L37.0723 22.829C37.0774 19.099 37.0994 18.9689 37.7893 18.6015C38.2448 18.3589 45.6837 18.3518 46.2141 18.5933C46.8641 18.8895 46.9319 19.3023 46.9319 22.9593V26.4028L47.4988 26.5091C48.7484 26.7436 50.9654 27.5973 52.8329 28.5633L54.8037 29.5824L57.3046 27.085C59.5826 24.8103 59.8535 24.5876 60.3447 24.5876C60.8394 24.5876 61.1254 24.8292 63.8034 27.5099C66.5048 30.2142 66.7226 30.4735 66.7226 30.9839C66.7226 31.4912 66.5207 31.7378 64.2096 34.052L61.6965 36.5685L62.3941 37.7839C63.2372 39.2527 64.0554 41.205 64.5583 42.9481L64.931 44.2396L68.4548 44.3168C70.3929 44.3592 72.0906 44.4497 72.2275 44.5179C72.758 44.7823 72.8263 45.3409 72.8263 49.4174V53.4246L72.4479 53.8028C72.2399 54.0109 71.9624 54.1812 71.8314 54.1812C71.6364 54.1812 71.5933 54.4048 71.5933 55.4143V56.6473L72.0171 56.6439C72.6554 56.6389 73.6318 56.1384 74.2547 55.497C75.2197 54.5033 75.2929 54.0565 75.2891 49.183C75.286 45.1638 75.2633 44.8068 74.9717 44.1625C74.5842 43.3065 74.0179 42.6949 73.2117 42.2617C72.6623 41.9666 72.2792 41.9219 69.6939 41.8519L66.7926 41.7734L66.4837 40.8486C66.3139 40.34 65.8674 39.2712 65.4914 38.4736L64.8077 37.0234L66.6379 35.1568C69.1512 32.5936 69.5713 31.6757 69.0513 29.8865C68.8014 29.0274 68.6336 28.8255 65.7653 25.9342C62.3838 22.5256 61.8076 22.1214 60.3301 22.1214C58.9622 22.1214 58.4472 22.4322 56.2992 24.5541L54.3376 26.4917L52.9853 25.8499C52.2415 25.4969 51.1474 25.045 50.554 24.8454L49.4751 24.4826L49.398 21.5681C49.3136 18.3749 49.1961 17.9217 48.2177 17.0141C47.174 16.0461 47.1136 16.0359 42.2308 16.0036C39.7724 15.9872 37.5871 16.0288 37.3747 16.0957ZM39.7647 32.1597C35.2037 32.7295 30.6415 35.4689 27.9895 39.2302C26.1017 41.9077 25.0676 44.7487 24.7962 48.0041L24.6923 49.2489H25.9475H27.2028V48.6526C27.2028 48.3246 27.3044 47.475 27.4286 46.7644C28.4821 40.735 33.0311 36.0705 39.1482 34.7471C40.3398 34.4892 43.6595 34.4892 44.8511 34.7471C47.6364 35.3496 50.12 36.6346 52.126 38.5112C54.6968 40.916 56.4473 44.5304 56.7397 48.0382L56.8408 49.2489H58.0739H59.307L59.2031 48.0041C58.3746 38.0693 49.6151 30.9294 39.7647 32.1597ZM40.5369 44.4978C38.445 44.8967 36.2625 46.6038 35.3492 48.5553C33.5009 52.5051 35.4386 57.2272 39.5076 58.6888C42.9819 59.9368 46.9253 58.3403 48.5688 55.0201C50.0172 52.0942 49.48 48.8304 47.1747 46.5502C45.3277 44.7233 43.0491 44.0187 40.5369 44.4978ZM44.0672 47.3014C45.08 47.7716 45.9467 48.6475 46.4519 49.7113C47.0161 50.8989 47.0265 52.6759 46.4761 53.7959C44.9578 56.8855 41.0237 57.6124 38.5994 55.2512C37.5094 54.1894 37.1495 53.3325 37.1469 51.7921C37.145 50.779 37.2164 50.4079 37.5473 49.7113C38.7375 47.2051 41.5892 46.151 44.0672 47.3014ZM19.5747 49.43C17.4828 49.8289 15.3003 51.5361 14.3871 53.4876C12.5387 57.4374 14.4765 62.1595 18.5454 63.6211C22.0198 64.8691 25.9631 63.2726 27.6066 59.9524C29.055 57.0265 28.5179 53.7627 26.2125 51.4825C24.3655 49.6555 22.087 48.951 19.5747 49.43ZM61.4991 49.43C59.4072 49.8289 57.2246 51.5361 56.3114 53.4876C54.463 57.4374 56.4008 62.1595 60.4698 63.6211C63.9441 64.8691 67.8874 63.2726 69.531 59.9524C70.9793 57.0265 70.4422 53.7627 68.1368 51.4825C66.2898 49.6555 64.0113 48.951 61.4991 49.43ZM23.105 52.2337C24.1178 52.7038 24.9845 53.5798 25.4898 54.6436C26.0539 55.8312 26.0644 57.6082 25.514 58.7281C23.9956 61.8177 20.0615 62.5446 17.6373 60.1835C16.5472 59.1216 16.1873 58.2648 16.1847 56.7244C16.1829 55.7113 16.2542 55.3401 16.5852 54.6436C17.7754 52.1374 20.627 51.0833 23.105 52.2337ZM65.0293 52.2337C66.0421 52.7038 66.9088 53.5798 67.4141 54.6436C67.9782 55.8312 67.9887 57.6082 67.4383 58.7281C65.9199 61.8177 61.9858 62.5446 59.5616 60.1835C58.4716 59.1216 58.1117 58.2648 58.109 56.7244C58.1072 55.7113 58.1786 55.3401 58.5095 54.6436C59.6997 52.1374 62.5513 51.0833 65.0293 52.2337ZM35.3518 60.5058C32.7379 60.9076 30.3202 62.2899 28.5855 64.3742L27.795 65.3241L21.6804 65.2947C15.0922 65.2629 13.8217 65.3667 12.0914 66.0769C8.4611 67.5672 5.94117 70.5993 5.22583 74.338C4.91556 75.96 4.92805 81.9537 5.24449 83.2966C5.7895 85.6081 7.48497 87.8037 9.5687 88.8961C11.5264 89.9221 11.693 89.9402 19.2202 89.9402H25.9697V88.7071V87.474H20.4209H14.8721V80.6922V73.9103H13.6391H12.406V80.6317V87.3534L11.9821 87.2505C10.5556 86.9045 8.75657 85.4097 8.11969 84.0413C7.52582 82.7656 7.4415 81.9593 7.50716 78.1802C7.56589 74.8033 7.59117 74.5466 7.96078 73.5744C9.05898 70.6867 11.4605 68.5876 14.3718 67.9706C15.1627 67.8031 16.7533 67.7497 21.017 67.7476L26.6222 67.7449L26.5211 68.0917C25.9876 69.9204 25.9557 70.5272 26.0033 77.9025C26.0479 84.7819 26.0698 85.285 26.3538 85.9768C27.049 87.669 28.5922 89.1129 30.2631 89.6345C31.0557 89.8818 31.6812 89.9402 33.5385 89.9402H35.8343V80.0756V70.2111H34.6012H33.3681V78.8426V87.474H32.3194C30.5125 87.474 29.2022 86.5716 28.6481 84.9452C28.4553 84.3795 28.4268 83.1181 28.4676 76.9723L28.516 69.6716L28.9152 68.6422C29.1347 68.076 29.5382 67.2641 29.8118 66.8377C30.5182 65.7369 32.1036 64.3104 33.2427 63.7509C35.0501 62.8631 35.8431 62.7857 42.5391 62.8443C48.3507 62.8951 48.5836 62.9087 49.5522 63.2516C50.9306 63.7399 51.7877 64.2634 52.8249 65.2505C53.8816 66.2562 54.5449 67.2519 55.084 68.6422L55.4832 69.6716L55.5316 76.9666C55.5859 85.1409 55.5749 85.2433 54.5285 86.3207C53.7347 87.138 52.9184 87.4666 51.6715 87.4706L50.6311 87.474V78.8426V70.2111H49.398H48.165V80.0886V89.9662L50.7467 89.9077C53.9874 89.8343 54.6936 89.6069 56.1104 88.1812C57.0975 87.1878 57.6228 86.2533 57.8872 85.0198C57.9914 84.5338 58.0292 81.6572 57.9938 76.8925C57.946 70.4614 57.9054 69.4188 57.6776 68.7468C57.534 68.3229 57.4156 67.9242 57.4147 67.8605C57.4137 67.7969 59.9274 67.7462 63.0003 67.7476C67.2482 67.7497 68.8369 67.8031 69.6274 67.9706C72.5786 68.5961 75.0929 70.8347 76.0921 73.7269C76.429 74.7016 76.4485 74.9777 76.4485 78.7735V82.789L75.868 83.9633C75.0499 85.6189 73.5836 86.8705 72.0171 87.2505L71.5933 87.3534V80.6317V73.9103H70.3602H69.1271V80.6922V87.474H63.5783H58.0295V88.7143V89.9545L65.1582 89.9089C72.2545 89.8633 72.291 89.8614 73.2117 89.496C74.4911 88.9881 76.0892 87.9036 76.829 87.0412C77.6976 86.0287 78.5055 84.4253 78.7656 83.1979C79.0874 81.6797 79.0749 75.8414 78.7464 74.2517C77.9675 70.4797 75.5271 67.5628 71.9078 66.0769C70.1775 65.3667 68.907 65.2629 62.3189 65.2947L56.2043 65.3241L55.4308 64.3947C54.0261 62.7066 52.5441 61.71 50.257 60.9154L48.8586 60.4295L42.5391 60.4009C39.0634 60.3852 35.829 60.4324 35.3518 60.5058ZM37.0674 88.7071V89.9402H41.9996H46.9319V88.7071V87.474H41.9996H37.0674V88.7071Z" fill="#1F1F1F"/>
</svg>
