<svg width="100" height="100" viewBox="0 0 100 100" fill="none" xmlns="http://www.w3.org/2000/svg">
<rect x="25.1177" y="11" width="68.8235" height="63.4706" rx="31.7353" fill="#50A0C8" fill-opacity="0.2"/>
<path fill-rule="evenodd" clip-rule="evenodd" d="M62.7209 19.2211C60.328 20.9939 58.3197 22.5215 58.258 22.6155C58.1964 22.7097 58.1449 23.4542 58.1436 24.2698C58.1416 25.526 58.1004 25.7741 57.8741 25.8918C57.7273 25.9683 49.1919 28.4521 38.9068 31.4116C31.3724 33.5796 24.777 35.5152 21.7304 36.4461L16.6393 37.8853C14.9334 38.2792 7.59403 40.4256 6.89381 40.7547C4.62888 41.8195 3.46993 44.5875 4.23488 47.1059C4.80916 48.9967 6.62392 50.5662 8.45409 50.7551L9.28865 50.8413L9.3285 72.1288L9.36819 93.4165L9.7286 93.7082C10.1953 94.0862 10.678 94.0781 11.179 93.6841L11.5806 93.3681L11.6194 71.8947L11.658 50.4214L22.4633 47.3077C28.4063 45.5951 33.3006 44.2259 33.3397 44.265C33.4006 44.3259 27.9142 89.8474 27.6812 91.2141L27.5965 91.7103H24.6961C21.8202 91.7103 21.7924 91.7135 21.421 92.085C20.9434 92.5625 20.9434 93.1478 21.421 93.6253L21.7956 94.0001H43.4864H65.1773L65.5519 93.6253C66.0295 93.1478 66.0295 92.5625 65.5519 92.085C65.1803 91.7133 65.153 91.7103 62.2729 91.7103C59.384 91.7103 59.368 91.7084 59.2955 91.3668C59.2367 91.0894 53.0411 40.1766 52.9118 38.9088C52.8767 38.5639 52.9994 38.5084 55.1645 37.8865C56.4239 37.5247 57.6088 37.1894 57.7978 37.1415C58.1402 37.0545 58.1413 37.0603 58.1413 38.9367C58.1413 40.7947 58.1468 40.8243 58.5611 41.2067C58.7919 41.42 60.681 42.8467 62.7591 44.3772L66.5373 47.1601V51.1167V55.0732H65.6441C64.5888 55.0732 63.8409 55.3027 63.6336 55.6898C63.5434 55.8583 63.4842 58.337 63.4842 61.9396V67.9101L63.8589 68.2847L64.2335 68.6595H67.6583C70.8023 68.6595 71.1126 68.6355 71.4434 68.3677L71.8038 68.076L71.847 62.0469L71.8902 56.0178L71.52 55.5875C71.1857 55.1988 71.0375 55.1515 69.9885 55.0986L68.8271 55.0398V51.0986V47.1573L72.5147 44.4367C74.5431 42.9402 76.4322 41.5199 76.7127 41.2803L77.2231 40.8448V38.8264C77.2231 38.0896 77.2203 37.6184 77.1978 37.2994V32.555C77.2198 31.7177 77.2231 30.4041 77.2231 28.2921V22.7638L76.8481 22.4114C76.6419 22.2177 74.6327 20.6965 72.383 19.0309C68.6791 16.2885 68.2351 16.0022 67.6822 16.0001C67.125 15.9978 66.6908 16.2798 62.7209 19.2211ZM74.9843 31.7319C74.9673 31.0125 74.9525 30.0591 74.9332 28.7861L74.8569 23.7261L71.2886 21.0859C68.5132 19.0324 67.6652 18.4771 67.4723 18.5865C67.3358 18.6639 65.7129 19.8496 63.8658 21.2215L60.5074 23.7156V31.7833V39.851L64.0838 42.4969C66.2248 44.081 67.7258 45.0942 67.8238 45.0214C67.9139 44.9545 69.5439 43.7527 71.4462 42.3505L74.9048 39.8014L74.9572 38.2643C74.966 38.0073 74.9744 37.792 74.9843 37.6101V31.7319ZM15.6514 40.457L22.2282 38.5404C25.1266 37.7464 31.8196 35.8462 39.4564 33.6445C49.54 30.7374 57.8705 28.3587 57.9688 28.3587C58.1008 28.3587 58.1367 29.182 58.1062 31.5133L58.0649 34.6679L34.0982 41.5891C11.7294 48.0487 10.0634 48.5072 9.10959 48.4669C8.23748 48.43 8.00285 48.3561 7.50672 47.9615C6.7926 47.3932 6.23877 46.3493 6.23877 45.5714C6.23877 44.5452 6.96297 43.2978 7.83218 42.827C7.99491 42.7389 10.215 42.0643 12.7655 41.3281C13.8261 41.0219 14.8294 40.718 15.6514 40.457ZM66.5363 27.738C65.4826 28.0586 64.3816 29.0012 63.866 30.0245C63.461 30.8279 63.3976 32.1409 63.7171 33.1032C64.1102 34.2864 65.2863 35.4275 66.4664 35.7705C68.6375 36.4017 70.9421 35.1972 71.6281 33.0728C72.142 31.482 71.802 30.0925 70.6069 28.8973C69.4812 27.7716 67.9032 27.3222 66.5363 27.738ZM68.6454 30.1945C69.6642 30.8157 69.8358 32.2583 68.9915 33.1027C67.5063 34.5879 65.0467 32.8031 66.0104 30.9395C66.3035 30.3727 67.0755 29.8863 67.6822 29.8863C67.934 29.8863 68.3676 30.0251 68.6454 30.1945ZM51.4906 46.2661C51.8924 49.6083 52.1934 52.3708 52.1593 52.4048C52.1253 52.4387 50.5212 50.8893 48.5949 48.9615L45.0922 45.4563L47.8339 42.7114C49.3418 41.2017 50.6171 40.0166 50.6679 40.078C50.7186 40.1392 51.0888 42.9239 51.4906 46.2661ZM45.2812 42.0568L43.4901 43.8479L42.5001 42.8668C41.9558 42.3272 41.5338 41.862 41.5627 41.8333C41.6274 41.7685 46.71 40.2918 46.9204 40.2767C47.0039 40.2706 46.2663 41.0718 45.2812 42.0568ZM40.4343 44.0067L41.8793 45.4578L38.3707 48.9689C36.441 50.8999 34.8387 52.4099 34.8102 52.3242C34.7438 52.1252 35.6713 44.2813 35.8192 43.7902C35.9125 43.4802 36.1589 43.3556 37.3803 43.0005C38.1779 42.7687 38.8662 42.5737 38.9099 42.5673C38.9535 42.5609 39.6394 43.2086 40.4343 44.0067ZM9.23736 44.3917C8.56309 44.5938 8.22328 44.9838 8.22328 45.556C8.22328 46.3501 8.70094 46.7319 9.57183 46.6337C10.9805 46.475 11.4905 45.0481 10.3495 44.4581C9.86813 44.2091 9.84997 44.208 9.23736 44.3917ZM47.3028 50.8752L51.0405 54.6152H43.4864H35.9323L39.6701 50.8752C41.7259 48.8182 43.4432 47.1352 43.4864 47.1352C43.5296 47.1352 45.247 48.8182 47.3028 50.8752ZM50.3559 57.027C50.3559 57.0942 48.8093 58.4003 46.9192 59.9295L43.4825 62.7098L40.2406 60.0899C38.4575 58.649 36.8632 57.343 36.6976 57.1876C36.4043 56.9124 36.5775 56.9051 43.3762 56.9051C47.215 56.9051 50.3559 56.96 50.3559 57.027ZM69.5545 61.9045L69.5949 66.3696H67.6845H65.774V61.8616V57.3536L67.644 57.3965L69.514 57.4394L69.5545 61.9045ZM37.7222 60.9886C39.6666 62.5629 41.3514 63.922 41.4664 64.009C41.6279 64.1313 40.6513 64.9945 37.1493 67.8254C34.66 69.8373 32.5718 71.5026 32.5089 71.5259C32.4459 71.5491 32.4188 71.3773 32.4488 71.1442C32.5915 70.03 34.0219 58.258 34.0219 58.1967C34.0219 58.0144 34.4162 58.3119 37.7222 60.9886ZM52.9559 58.3171C52.9586 58.4221 53.3224 61.4456 53.7644 65.0362C54.2063 68.6268 54.5188 71.5463 54.4588 71.524C54.3986 71.5017 52.3146 69.8389 49.8277 67.8286L45.3059 64.1736L45.7318 63.8336C45.9662 63.6466 47.6348 62.2906 49.44 60.8199C51.2451 59.3494 52.7735 58.1417 52.8365 58.1362C52.8996 58.1307 52.9533 58.2122 52.9559 58.3171ZM48.2563 69.4991L52.7866 73.1628L48.1366 73.2031C45.579 73.2254 41.3946 73.2254 38.8378 73.2031L34.1893 73.1628L38.7233 69.4707C41.2171 67.4401 43.3629 65.7914 43.4918 65.807C43.6206 65.8225 45.7647 67.484 48.2563 69.4991ZM51.727 75.8884C51.4347 76.0862 49.459 77.4194 47.3367 78.851L43.4779 81.454L39.6276 78.8496C37.51 77.4171 35.5382 76.084 35.2459 75.887L34.7143 75.5289H43.4864H52.2586L51.727 75.8884ZM36.624 79.5805C39.181 81.3052 41.2872 82.765 41.3046 82.8244C41.3319 82.9184 30.1698 90.513 30.1112 90.4402C30.046 90.3594 31.8101 76.4448 31.8855 76.4448C31.9348 76.4448 34.0671 77.856 36.624 79.5805ZM56.0229 83.4288C56.4911 87.27 56.8664 90.4251 56.8568 90.4402C56.8083 90.5173 45.6415 82.9169 45.6683 82.825C45.7027 82.7082 54.9491 76.4448 55.0874 76.4448C55.1337 76.4448 55.5547 79.5875 56.0229 83.4288ZM48.9918 87.9321L54.4812 91.6339L48.9838 91.6739C45.9602 91.6961 41.0153 91.6961 37.9949 91.6739L32.5034 91.6339L37.9567 87.9396C40.956 85.9077 43.4309 84.242 43.4562 84.2377C43.4814 84.2336 45.9724 85.8961 48.9918 87.9321Z" fill="#1F1F1F"/>
</svg>
